<?xml version="1.0" standalone="no"?>
<!DOCTYPE svg PUBLIC "-//W3C//DTD SVG 20010904//EN"
 "http://www.w3.org/TR/2001/REC-SVG-20010904/DTD/svg10.dtd">
<svg version="1.0" xmlns="http://www.w3.org/2000/svg"
 width="800.000000pt" height="800.000000pt" viewBox="0 0 800.000000 800.000000"
 preserveAspectRatio="xMidYMid meet">
<metadata>
Created by potrace 1.14, written by Peter Selinger 2001-2017
</metadata>
<g transform="translate(0.000000,800.000000) scale(0.100000,-0.100000)"
fill="#000000" stroke="none">
<path d="M3824 7508 c-5 -7 -2 -9 7 -4 8 4 5 0 -5 -8 -16 -13 -22 -13 -28 -3
-4 6 -8 8 -8 2 0 -5 -13 -10 -30 -10 -16 0 -30 4 -30 8 0 4 -8 3 -18 -2 -11
-6 -24 -6 -35 0 -11 7 -17 6 -17 -1 0 -12 -22 -9 -32 5 -5 6 -8 5 -8 -3 0 -7
-4 -10 -10 -7 -5 3 -10 0 -10 -8 0 -11 -21 -13 -99 -13 -55 1 -98 -1 -95 -3 2
-2 -4 -10 -14 -17 -12 -9 -21 -9 -29 -2 -9 7 -13 7 -13 -2 0 -9 -4 -9 -12 -2
-9 7 -17 6 -25 -3 -6 -7 -10 -15 -7 -17 2 -3 -3 -5 -10 -5 -8 0 -14 4 -13 8 1
4 -1 7 -5 8 -21 3 -29 0 -24 -7 3 -5 -16 -8 -42 -7 -48 1 -86 -10 -78 -23 5
-9 -41 -8 -49 0 -10 10 -55 -4 -55 -17 0 -9 -10 -12 -30 -10 -25 3 -33 0 -40
-18 -5 -12 -9 -17 -9 -11 -1 15 -47 9 -68 -8 -9 -7 -30 -13 -46 -14 -17 -1
-33 -6 -35 -13 -2 -6 -25 -11 -54 -11 -29 0 -55 -6 -64 -14 -8 -9 -26 -12 -44
-10 -18 3 -30 1 -30 -6 0 -6 -4 -8 -10 -5 -5 3 -10 1 -10 -6 0 -7 -10 -9 -25
-7 -14 3 -28 1 -31 -4 -3 -4 -9 -6 -14 -3 -4 3 -13 -1 -19 -9 -6 -7 -24 -12
-40 -11 -17 1 -29 -3 -28 -9 1 -6 -8 -11 -20 -10 -13 0 -23 -3 -23 -8 0 -5 -4
-7 -8 -4 -5 3 -19 -4 -30 -15 -12 -11 -22 -15 -22 -9 0 15 -22 8 -42 -15 -12
-14 -17 -16 -18 -6 0 10 -5 8 -17 -6 -10 -11 -26 -19 -35 -17 -10 1 -30 -7
-45 -19 -15 -12 -24 -16 -20 -10 5 8 0 11 -12 10 -11 0 -17 -5 -15 -9 3 -4 -2
-8 -10 -8 -9 0 -16 -4 -16 -10 0 -5 -9 -10 -21 -10 -13 0 -18 -4 -13 -12 5 -8
2 -9 -9 -5 -10 3 -17 2 -17 -4 0 -6 -4 -8 -9 -5 -5 3 -12 -1 -15 -10 -5 -14
-9 -14 -23 -3 -13 11 -15 11 -9 1 6 -9 3 -12 -10 -10 -11 2 -18 -2 -16 -10 1
-6 -1 -11 -5 -11 -26 4 -43 -4 -48 -22 -5 -14 -10 -18 -14 -10 -9 14 -57 7
-53 -8 1 -6 -1 -11 -5 -10 -17 2 -53 -14 -53 -23 0 -6 -6 -6 -14 1 -10 8 -16
9 -21 1 -3 -6 -11 -8 -16 -4 -14 8 -40 -16 -32 -30 4 -7 2 -7 -8 1 -12 10 -18
9 -28 -6 -9 -12 -21 -16 -34 -13 -12 3 -25 -2 -33 -13 -7 -10 -20 -15 -29 -12
-8 4 -15 1 -15 -6 0 -8 -3 -8 -9 2 -7 11 -10 11 -17 -2 -5 -8 -18 -17 -29 -19
-11 -1 -26 -9 -34 -16 -7 -7 -19 -11 -26 -8 -6 2 -18 -4 -25 -13 -8 -12 -21
-16 -36 -13 -17 3 -31 -3 -44 -18 -13 -15 -20 -18 -20 -9 -1 10 -5 8 -16 -6
-16 -22 -35 -26 -46 -10 -5 6 -8 5 -8 -3 0 -7 -4 -10 -10 -7 -5 3 -10 -1 -10
-11 0 -11 -6 -15 -20 -11 -13 3 -21 -1 -25 -14 -7 -20 -25 -26 -25 -8 0 8 -5
8 -15 -1 -8 -7 -15 -9 -15 -4 0 5 -5 2 -10 -6 -5 -8 -24 -16 -42 -16 -54 -2
-59 -4 -54 -13 9 -14 -37 -22 -46 -8 -6 8 -10 6 -14 -8 -6 -24 -41 -30 -63
-12 -12 9 -13 9 -7 0 4 -8 1 -13 -8 -13 -9 0 -16 -4 -16 -8 0 -10 -2 -10 -82
-12 -47 -2 -58 -6 -63 -21 -4 -11 -11 -17 -16 -13 -5 3 -6 10 -3 16 5 7 2 8
-7 2 -8 -5 -33 -9 -57 -10 -29 -1 -47 -7 -56 -20 -12 -15 -16 -16 -30 -5 -9 7
-16 10 -16 5 0 -5 -23 -9 -50 -9 -28 0 -50 4 -50 8 0 5 -4 6 -9 2 -14 -8 -71
-13 -71 -6 0 6 -22 6 -98 -2 -18 -2 -35 0 -38 5 -13 21 -21 -7 -21 -73 0 -54
-4 -75 -16 -84 -14 -10 -14 -12 2 -22 14 -9 17 -22 14 -64 -1 -29 -7 -55 -12
-59 -11 -6 -17 -142 -7 -158 4 -7 4 -12 -1 -12 -4 0 -7 -45 -5 -100 3 -82 1
-101 -12 -106 -16 -6 -14 -38 6 -62 7 -8 12 -23 10 -32 -4 -22 27 -49 37 -32
4 6 17 10 28 8 12 -3 24 1 26 8 3 6 22 13 43 14 21 2 42 9 46 16 8 14 77 14
99 0 8 -4 9 -3 5 4 -7 12 42 38 52 27 3 -3 13 2 23 11 9 8 35 16 58 17 25 1
41 6 41 14 0 8 11 11 30 9 21 -2 31 2 35 14 4 12 15 16 45 13 30 -2 42 1 47
13 3 8 12 13 19 10 8 -3 14 0 14 7 0 9 3 9 9 -1 10 -16 29 -12 53 11 14 13 23
15 38 7 15 -8 20 -6 25 9 5 16 13 19 41 16 25 -2 42 3 55 16 10 10 21 14 24 8
4 -5 12 -6 18 -2 7 4 20 6 31 4 10 -1 15 2 12 7 -7 13 11 19 47 17 15 -1 25 0
22 3 -9 9 35 33 47 26 6 -4 17 1 24 11 8 10 17 16 20 12 4 -3 18 2 31 13 13
10 31 16 40 13 9 -4 21 1 28 11 7 9 17 16 21 15 28 -5 54 2 48 12 -5 8 1 10
19 7 18 -3 32 1 43 13 11 12 26 17 41 14 15 -2 26 2 30 11 3 8 17 14 31 14 14
0 34 7 44 16 15 14 20 15 35 3 11 -9 14 -10 9 -1 -4 7 -1 12 9 12 9 0 13 5 10
10 -4 6 8 10 29 10 20 0 36 5 36 10 0 6 7 10 16 10 8 0 12 4 9 10 -3 6 1 7 9
4 9 -3 13 -10 10 -16 -3 -5 3 -4 14 3 12 7 18 17 16 21 -5 7 10 12 29 9 4 -1
15 5 22 13 8 8 29 13 47 12 23 -2 38 4 51 18 10 12 16 14 12 6 -4 -8 2 -5 13
7 12 14 28 21 41 18 11 -2 28 3 36 11 8 9 19 12 25 9 5 -3 10 1 10 9 0 8 5 18
12 22 7 5 8 3 3 -6 -6 -10 -4 -11 6 -4 14 9 19 10 52 12 10 1 15 7 12 12 -4 6
5 10 20 10 14 0 24 4 21 9 -3 5 1 11 9 15 8 3 15 0 15 -7 0 -8 3 -7 9 2 8 13
12 13 27 0 11 -9 15 -9 10 -1 -4 7 -1 12 8 12 9 0 16 5 16 10 0 6 7 10 16 10
8 0 22 7 30 15 8 8 21 12 29 9 8 -3 22 1 31 10 9 10 24 14 34 11 12 -4 22 1
29 12 5 10 12 17 15 16 3 -2 7 -3 9 -2 27 8 47 7 41 -2 -5 -8 -1 -8 14 0 12 6
24 16 27 21 3 6 20 10 36 10 16 0 32 6 35 13 2 7 17 12 34 11 19 -1 30 3 30
11 0 16 27 28 32 14 2 -6 11 -7 21 -4 9 4 15 11 12 15 -7 12 16 17 57 14 26
-2 37 0 35 9 -1 7 8 11 26 10 15 -1 25 2 22 7 -3 6 1 7 9 4 11 -4 16 0 16 12
1 18 1 18 16 -1 12 -16 16 -17 23 -6 5 8 23 14 39 13 18 0 33 5 36 14 3 9 10
12 16 9 5 -3 10 0 10 7 0 8 3 9 8 3 11 -15 32 -17 32 -2 0 9 2 9 9 -1 4 -8 12
-14 16 -14 4 0 12 6 16 14 7 10 9 10 9 -2 0 -9 5 -7 16 8 16 23 43 26 56 7 5
-6 8 -5 8 4 0 11 3 11 17 0 10 -8 14 -9 10 -2 -12 19 14 28 87 29 54 1 70 4
78 18 8 13 13 15 24 5 8 -6 14 -8 14 -3 0 5 11 10 25 10 14 1 22 -2 19 -7 -3
-5 6 -5 20 1 16 6 27 6 31 0 4 -7 13 -7 24 0 12 6 22 5 29 -2 7 -7 12 -8 12
-2 0 5 11 10 25 10 14 1 22 -2 19 -7 -3 -5 6 -5 20 1 16 6 27 6 31 0 4 -7 13
-7 24 0 12 6 22 5 29 -2 8 -8 12 -8 12 -2 0 12 29 12 48 0 6 -4 12 -3 12 2 0
10 30 9 48 -2 6 -4 12 -3 12 3 0 13 53 9 62 -4 5 -6 8 -6 8 2 0 9 19 11 40 3
3 -1 9 -2 14 -1 38 7 76 6 76 -3 0 -7 3 -8 8 -1 4 6 26 10 49 10 23 0 40 -2
37 -4 -13 -13 22 -27 66 -25 37 2 50 -1 50 -11 0 -8 5 -17 12 -21 6 -4 8 -3 4
4 -4 7 1 10 14 9 11 -1 20 -5 20 -10 0 -4 6 -2 14 5 8 7 12 16 9 21 -8 13 8 8
24 -8 8 -8 19 -13 24 -10 5 4 9 1 9 -6 0 -10 3 -10 12 -1 13 13 42 17 34 4 -2
-4 4 -14 16 -21 15 -9 18 -10 13 0 -6 8 -4 10 6 4 20 -13 49 -13 49 -1 0 7 3
8 8 1 8 -12 22 -13 38 -3 7 4 23 -4 38 -19 14 -14 26 -21 26 -15 0 16 54 9 61
-8 5 -12 19 -15 58 -13 31 2 51 -1 51 -8 0 -5 5 -7 10 -4 6 3 10 2 10 -3 0 -5
19 -8 43 -7 51 3 67 -2 67 -21 0 -17 12 -18 28 -2 9 9 12 9 12 -2 0 -13 2 -13
10 0 8 12 10 12 10 1 0 -8 3 -12 6 -8 4 3 13 0 21 -8 18 -19 47 -20 37 -2 -5
8 -2 8 9 -2 9 -7 17 -10 17 -5 0 5 6 2 13 -6 14 -17 18 -18 76 -21 30 -2 40
-7 36 -17 -3 -8 1 -12 13 -10 9 1 23 -1 31 -6 9 -6 12 -5 8 1 -4 7 5 10 23 9
19 0 30 -6 30 -15 0 -8 3 -12 6 -9 3 4 19 2 35 -2 19 -6 29 -5 29 2 0 6 8 2
18 -9 11 -13 27 -19 45 -17 18 2 27 -2 27 -11 0 -8 5 -17 12 -21 7 -5 8 -3 3
7 -7 12 -6 12 7 1 12 -9 18 -10 23 -2 5 7 12 5 23 -7 10 -11 26 -17 36 -15 11
2 25 -4 32 -13 7 -9 17 -14 23 -11 5 4 16 -2 23 -12 7 -11 23 -18 36 -17 13 1
29 -3 35 -10 17 -16 47 -26 47 -15 0 6 9 1 20 -10 12 -12 26 -17 36 -13 11 4
15 2 11 -4 -4 -6 1 -17 10 -24 14 -12 16 -12 8 1 -8 13 -7 13 8 1 11 -8 17 -9
17 -3 0 6 7 9 15 6 8 -4 15 -12 15 -19 0 -9 11 -12 34 -11 28 3 36 -1 41 -18
4 -13 8 -16 11 -9 4 9 11 7 26 -7 15 -13 30 -18 55 -14 28 3 36 0 40 -16 4
-14 10 -17 20 -12 20 12 73 2 73 -13 0 -7 7 -16 16 -19 8 -3 12 -2 9 4 -3 6
-2 10 3 10 6 0 12 -7 16 -15 3 -9 18 -15 35 -15 16 0 31 -5 33 -12 2 -6 25
-11 50 -12 36 0 45 -3 40 -15 -3 -9 -1 -12 6 -7 6 3 14 1 18 -5 5 -8 8 -8 13
0 5 7 14 5 27 -7 11 -10 25 -17 31 -15 6 2 16 -5 22 -16 9 -16 16 -18 41 -11
23 7 32 5 39 -7 5 -10 22 -16 44 -16 20 0 35 -5 34 -11 -1 -6 12 -11 31 -10
17 0 32 -3 32 -8 0 -4 11 -3 25 2 21 8 25 7 25 -8 0 -11 8 -18 20 -18 11 0 20
5 20 11 0 7 3 7 8 0 9 -14 65 -14 74 0 5 7 8 7 8 0 0 -6 22 -11 50 -11 28 0
50 5 50 11 0 6 3 7 8 0 4 -5 14 -10 22 -10 8 0 18 5 22 10 5 7 8 6 8 -1 0 -11
58 -13 76 -1 6 3 14 3 18 -1 12 -11 86 -9 86 2 0 7 3 8 8 1 4 -5 14 -10 22
-10 8 0 18 5 22 10 5 7 8 6 8 0 0 -6 15 -11 34 -11 19 0 33 3 31 6 -11 19 62
36 76 17 3 -5 13 -1 23 8 9 9 16 13 16 8 0 -4 5 -1 10 7 9 13 10 13 11 0 1 -8
1 -19 0 -24 -3 -12 21 -26 31 -20 4 3 4 14 -2 24 -7 13 -7 21 0 25 5 3 10 1
10 -5 0 -6 4 -8 10 -5 6 3 10 1 10 -5 0 -6 5 -8 10 -5 6 4 10 12 9 18 -3 25 1
38 11 32 6 -4 8 -10 5 -15 -3 -4 4 -10 15 -13 11 -3 20 -1 20 5 0 5 5 6 11 3
6 -4 10 -1 8 6 -4 33 1 41 24 36 12 -4 29 -2 37 3 12 8 12 10 1 10 -10 0 -11
3 -2 13 6 8 7 17 3 21 -4 5 4 6 17 4 23 -3 25 1 27 37 2 23 -4 50 -12 63 -9
13 -13 26 -10 29 3 3 -2 12 -10 21 -12 11 -12 17 -3 22 17 11 1 32 -20 25 -13
-4 -17 0 -16 15 1 11 4 23 8 26 11 11 8 26 -3 19 -5 -3 -10 1 -10 9 0 9 -5 16
-11 16 -5 0 -8 4 -4 9 3 5 -2 17 -11 25 -9 9 -13 23 -10 31 3 8 -1 18 -8 22
-8 5 -16 17 -18 28 -3 23 -22 45 -36 45 -6 0 -8 8 -5 19 3 12 -3 24 -18 35
-13 9 -20 16 -16 16 5 0 2 7 -7 15 -17 17 -56 20 -56 4 0 -5 -4 -7 -10 -4 -5
3 -10 1 -10 -6 0 -7 -3 -9 -7 -6 -3 4 -12 -1 -19 -11 -7 -9 -14 -12 -14 -6 0
17 -28 25 -36 12 -5 -7 -2 -8 6 -3 8 5 11 4 6 -3 -4 -6 -13 -9 -21 -6 -8 4
-13 10 -10 14 3 5 1 12 -5 15 -6 4 -9 3 -8 -2 3 -10 -50 -63 -63 -63 -5 0 -9
5 -9 10 0 7 -7 7 -21 -1 -17 -9 -20 -8 -14 2 5 8 4 10 -4 5 -18 -12 -61 -15
-61 -5 0 5 -5 9 -11 9 -5 0 -8 -3 -6 -7 3 -5 -6 -9 -19 -9 -13 -1 -24 2 -24 7
0 6 -10 5 -21 -2 -17 -9 -20 -8 -14 2 5 8 4 10 -4 5 -18 -12 -61 -15 -61 -5 0
5 -5 9 -11 9 -5 0 -8 -3 -6 -7 3 -5 -6 -9 -19 -9 -13 -1 -24 2 -24 7 0 6 -10
5 -21 -2 -17 -9 -20 -8 -14 2 5 8 4 10 -4 5 -18 -12 -61 -15 -61 -5 0 5 -5 9
-11 9 -5 0 -8 -4 -5 -8 8 -14 -34 -7 -52 9 -9 8 -28 14 -42 13 -34 -1 -62 14
-53 29 4 7 0 7 -10 -2 -14 -11 -17 -11 -17 0 0 11 -2 11 -10 -1 -6 -9 -13 -11
-17 -5 -11 13 -36 18 -28 5 3 -5 3 -10 -2 -10 -12 0 -39 20 -28 20 6 0 4 4 -4
9 -7 5 -29 7 -47 6 -25 -3 -34 1 -34 11 0 9 -4 12 -10 9 -5 -3 -10 -1 -10 6 0
8 -3 9 -14 0 -10 -9 -16 -8 -26 4 -7 8 -18 15 -26 15 -7 0 -20 7 -28 16 -9 8
-20 13 -25 10 -5 -4 -12 0 -14 6 -4 9 -6 9 -6 1 -1 -15 -43 -4 -58 16 -10 13
-14 14 -21 3 -7 -10 -11 -8 -15 8 -4 15 -11 21 -21 17 -10 -4 -20 1 -26 13 -9
18 -46 20 -72 4 -4 -3 -8 2 -8 11 0 9 -4 13 -10 10 -5 -3 -10 -1 -10 4 0 6 -9
11 -21 11 -11 0 -17 5 -14 10 5 9 -24 15 -49 11 -5 -1 -15 8 -23 19 -11 16
-18 18 -28 10 -10 -8 -15 -7 -19 8 -5 15 -14 18 -42 15 -27 -3 -40 2 -55 19
-11 13 -17 17 -13 9 5 -11 3 -13 -10 -8 -10 4 -24 7 -32 7 -9 0 -12 5 -9 10 6
10 -6 14 -38 11 -9 -1 -20 4 -23 12 -3 9 -16 14 -30 12 -14 -1 -23 0 -20 2 3
3 -1 11 -7 18 -8 9 -16 10 -24 3 -9 -7 -13 -7 -13 1 0 7 -5 9 -10 6 -6 -3 -13
1 -16 9 -3 9 -10 14 -14 11 -4 -2 -17 4 -29 14 -12 11 -30 17 -40 14 -10 -2
-24 2 -32 10 -8 7 -22 13 -32 11 -9 -1 -25 5 -34 14 -18 18 -43 25 -43 11 0
-5 -9 -4 -19 3 -11 7 -18 15 -15 19 2 4 -12 6 -30 4 -25 -1 -33 2 -29 12 4 9
-5 13 -31 13 -20 0 -36 4 -36 9 0 15 -32 22 -46 10 -12 -10 -13 -8 -7 7 6 17
5 17 -10 5 -15 -12 -19 -12 -32 5 -8 10 -15 15 -15 10 0 -5 -6 -3 -14 3 -10 8
-16 9 -21 1 -4 -7 -12 -7 -26 0 -11 7 -17 16 -12 23 4 7 -2 5 -12 -3 -15 -12
-17 -12 -10 -1 6 11 3 13 -14 8 -14 -3 -28 1 -40 15 -11 11 -22 15 -25 10 -8
-13 -48 -3 -64 17 -11 13 -12 13 -6 1 6 -12 5 -13 -7 -4 -8 6 -23 10 -33 8
-25 -4 -58 14 -51 27 8 11 -5 12 -24 0 -15 -10 -71 5 -71 19 0 4 -12 7 -27 7
-50 0 -64 3 -58 12 3 5 1 12 -5 16 -5 3 -10 2 -10 -2 0 -15 -54 -9 -70 7 -8 8
-31 15 -50 15 -21 0 -41 7 -52 18 -11 13 -18 15 -23 6 -6 -8 -10 -7 -16 2 -7
12 -9 12 -9 0 0 -10 -3 -11 -13 -2 -10 7 -17 7 -24 0 -8 -8 -14 -6 -21 7 -9
16 -22 19 -96 18 -69 -1 -86 2 -86 14 0 9 -7 13 -19 9 -10 -2 -26 0 -35 5 -9
5 -16 5 -16 1 0 -5 -20 -8 -45 -8 -25 0 -45 4 -45 8 0 4 -8 3 -18 -2 -13 -7
-21 -5 -29 7 -8 14 -26 17 -100 16 -49 0 -95 -4 -101 -8 -6 -3 -13 -2 -17 4
-8 14 -32 13 -41 -2z"/>
<path d="M2866 7333 c-6 -14 -5 -15 5 -6 7 7 10 15 7 18 -3 3 -9 -2 -12 -12z"/>
<path d="M3905 6500 c-4 -6 -16 -8 -27 -4 -16 5 -19 3 -12 -7 6 -11 5 -12 -7
-3 -19 15 -90 10 -103 -7 -8 -11 -35 -13 -112 -11 -79 2 -104 0 -113 -12 -7
-8 -20 -12 -28 -9 -12 5 -14 3 -8 -7 6 -10 4 -11 -6 -4 -22 13 -58 13 -52 -2
7 -20 -12 -25 -33 -8 -10 9 -13 12 -5 8 10 -5 12 -3 6 6 -6 10 -11 9 -21 -5
-14 -19 -70 -25 -93 -10 -9 5 -12 4 -8 -2 11 -17 -15 -30 -55 -28 -21 1 -36 0
-34 -4 2 -3 -2 -11 -9 -18 -11 -10 -14 -10 -18 0 -3 9 -8 9 -20 -2 -10 -7 -17
-10 -17 -5 0 5 -5 1 -11 -8 -6 -12 -19 -16 -44 -14 -23 3 -39 -2 -51 -15 -12
-13 -21 -16 -33 -10 -10 6 -24 5 -34 0 -12 -7 -17 -6 -17 3 -1 8 -8 5 -18 -8
-11 -13 -26 -20 -40 -18 -12 2 -22 -1 -22 -7 0 -5 -4 -7 -10 -4 -5 3 -10 1
-10 -5 0 -6 -12 -11 -27 -10 -36 2 -74 -10 -67 -21 3 -6 -8 -7 -25 -4 -24 4
-31 1 -36 -15 -4 -11 -11 -17 -17 -13 -25 14 -67 8 -72 -11 -4 -15 -8 -17 -19
-8 -10 9 -16 9 -25 0 -7 -7 -12 -8 -12 -3 0 5 -6 1 -12 -8 -7 -9 -25 -18 -39
-19 -15 -2 -33 -9 -40 -15 -8 -6 -23 -9 -33 -7 -11 1 -25 -4 -31 -13 -7 -10
-19 -14 -29 -10 -9 4 -16 2 -16 -3 0 -6 -7 -10 -15 -10 -8 0 -15 -5 -15 -11 0
-6 -9 -8 -21 -4 -14 5 -25 1 -35 -12 -9 -10 -12 -11 -8 -3 7 13 5 13 -9 2 -9
-8 -26 -12 -39 -10 -13 2 -28 -3 -33 -10 -6 -7 -19 -15 -30 -16 -11 -2 -19
-11 -19 -20 1 -9 -3 -13 -9 -9 -22 13 -72 8 -85 -9 -8 -11 -22 -16 -42 -13
-20 2 -30 -1 -30 -10 0 -7 -9 -15 -20 -18 -12 -3 -18 -1 -14 5 4 6 -3 5 -15
-1 -11 -7 -21 -15 -21 -19 0 -9 -47 -8 -57 1 -3 4 -13 1 -21 -6 -8 -6 -17 -11
-19 -9 -10 7 -23 0 -17 -10 5 -8 2 -9 -9 -5 -10 3 -17 2 -17 -4 0 -15 -44 -28
-52 -15 -5 7 -8 7 -8 -3 0 -10 -3 -11 -14 -2 -11 10 -16 8 -24 -5 -6 -11 -25
-19 -53 -21 -24 -2 -45 -8 -47 -13 -2 -6 -12 -10 -22 -10 -10 0 -20 -7 -23
-15 -4 -9 -18 -13 -44 -12 -23 1 -42 -3 -49 -12 -6 -8 -24 -14 -40 -15 -17 -1
-28 -6 -26 -13 1 -7 -6 -13 -16 -13 -10 0 -24 6 -31 13 -10 10 -11 9 -6 -4 4
-10 0 -16 -9 -16 -8 0 -13 4 -10 9 3 4 1 8 -4 8 -6 0 -12 -7 -16 -15 -3 -8
-15 -15 -27 -15 -11 0 -34 -9 -49 -20 -17 -12 -31 -16 -35 -10 -4 6 -13 5 -25
-2 -10 -7 -17 -16 -14 -20 3 -4 -2 -5 -10 -2 -9 3 -16 1 -16 -6 0 -6 -4 -8
-10 -5 -5 3 -10 2 -10 -4 0 -5 -15 -9 -32 -8 -20 1 -40 -5 -51 -16 -15 -15
-21 -16 -33 -6 -11 9 -14 9 -14 -1 0 -10 -3 -10 -14 -1 -11 10 -16 8 -20 -7
-4 -12 -16 -19 -34 -19 -65 -1 -72 -3 -65 -19 5 -14 3 -15 -14 -6 -14 8 -23 8
-31 0 -9 -9 -12 -8 -12 2 0 12 -2 13 -9 1 -6 -10 -10 -10 -16 -1 -5 8 -10 7
-19 -5 -6 -9 -20 -17 -30 -19 -9 -1 -21 -8 -26 -16 -5 -7 -18 -11 -34 -8 -14
3 -26 1 -26 -5 0 -5 -8 -3 -17 4 -10 9 -14 9 -10 2 10 -16 -20 -30 -65 -28
-20 0 -35 -2 -34 -5 2 -3 -12 -15 -31 -27 -28 -19 -35 -20 -39 -8 -8 19 -24
19 -24 0 0 -10 -9 -13 -29 -10 -19 2 -31 -2 -35 -11 -3 -8 -19 -14 -35 -14
-16 0 -31 -5 -33 -11 -2 -7 -16 -13 -32 -13 -15 -1 -31 -8 -36 -16 -6 -8 -10
-12 -10 -8 0 4 -10 4 -22 -1 -21 -8 -33 -57 -16 -67 5 -3 3 -14 -2 -25 -7 -11
-7 -19 -1 -19 11 0 9 -19 -3 -39 -5 -8 -4 -16 4 -21 8 -5 9 -13 4 -21 -11 -18
-11 -52 0 -60 4 -4 3 -16 -3 -27 -7 -14 -8 -23 -1 -27 7 -4 7 -13 0 -26 -6
-10 -7 -19 -3 -19 5 0 8 -13 8 -30 1 -16 -2 -30 -6 -30 -10 0 -6 -34 5 -41 4
-4 3 -16 -3 -28 -8 -14 -8 -21 -1 -21 7 0 8 -6 0 -19 -7 -13 -7 -22 0 -26 7
-4 7 -12 0 -25 -7 -13 -6 -20 2 -22 8 -3 8 -10 -2 -27 -7 -15 -8 -21 -1 -17 6
4 11 3 11 -1 0 -5 11 -10 25 -11 26 -2 67 -31 59 -43 -2 -4 5 -5 16 -2 11 3
20 10 20 15 0 5 12 8 28 6 15 -2 26 -8 25 -14 -1 -7 12 -11 35 -10 20 1 43 -3
51 -8 11 -8 13 -8 7 2 -11 18 5 15 19 -4 7 -10 27 -17 53 -17 29 -1 42 -5 42
-14 0 -8 4 -12 9 -8 5 3 12 1 16 -5 4 -6 12 -7 18 -3 21 13 38 12 44 -3 3 -9
20 -14 49 -14 30 0 44 -4 44 -13 0 -9 14 -13 43 -12 28 0 46 -5 54 -16 12 -16
39 -19 61 -5 7 4 12 2 12 -4 0 -6 5 -8 10 -5 6 3 10 0 10 -7 0 -8 12 -14 30
-14 16 -1 36 -9 45 -17 8 -9 22 -14 30 -11 8 3 21 -1 30 -9 8 -9 24 -14 35
-12 11 2 25 -4 32 -13 15 -20 38 -27 38 -11 0 8 4 9 13 0 8 -6 17 -7 21 -3 4
4 6 0 4 -8 -2 -9 3 -14 13 -12 9 1 19 -4 23 -13 3 -9 18 -15 35 -15 18 0 34
-7 40 -17 6 -10 11 -14 11 -9 0 4 12 1 26 -9 14 -9 34 -15 44 -12 10 2 23 -4
31 -14 9 -13 21 -17 41 -14 19 4 27 1 26 -7 -2 -7 7 -14 20 -16 12 -2 22 -7
22 -12 0 -5 10 -10 23 -12 12 -2 21 -9 19 -16 -1 -8 2 -11 7 -8 5 4 12 2 16
-4 4 -7 13 -6 28 1 12 7 19 8 15 4 -13 -14 25 -32 64 -30 28 1 39 -3 43 -16 3
-10 12 -16 19 -13 7 3 18 -2 25 -10 7 -8 19 -12 27 -9 9 3 14 -1 14 -12 0 -11
5 -15 15 -12 8 4 17 2 20 -4 4 -5 11 -7 16 -3 5 3 8 0 7 -7 -2 -7 9 -13 25
-14 16 -1 33 -8 37 -15 5 -7 19 -11 34 -8 23 5 30 -1 28 -23 -1 -3 6 -6 14 -6
7 0 14 5 14 11 0 6 7 1 15 -11 10 -14 24 -20 40 -19 16 2 26 -3 30 -14 4 -13
14 -16 36 -14 20 3 32 -1 36 -11 3 -9 10 -15 17 -14 32 4 56 -2 56 -15 0 -9 8
-12 24 -9 16 3 32 -2 47 -16 12 -11 27 -17 33 -14 21 14 49 10 53 -8 3 -12 12
-16 28 -13 13 2 30 -3 39 -11 8 -8 28 -15 45 -15 18 0 31 -5 31 -12 0 -9 16
-13 47 -12 32 1 56 -5 71 -17 19 -15 27 -16 43 -6 15 9 22 8 39 -11 23 -24 40
-29 40 -9 1 6 9 2 18 -9 14 -16 28 -21 58 -20 41 2 84 -11 84 -26 0 -5 5 -6
10 -3 16 10 51 -5 43 -18 -3 -7 2 -5 13 5 16 14 21 14 32 2 7 -8 23 -12 35
-10 13 2 27 -5 36 -16 11 -16 15 -17 22 -7 7 11 9 11 9 -1 0 -13 1 -13 10 0 8
12 10 12 10 1 0 -10 3 -11 14 -2 11 9 16 9 21 0 6 -8 10 -7 16 2 7 11 9 11 9
-1 0 -13 1 -13 10 0 6 10 10 11 10 2 0 -6 6 -11 13 -10 6 2 11 -2 10 -9 -2 -8
12 -11 43 -10 29 1 48 -3 53 -12 9 -15 69 -20 89 -7 7 4 12 4 12 -1 0 -4 33
-7 74 -6 56 2 75 -1 79 -12 4 -9 17 -12 36 -10 17 2 33 0 35 -4 6 -9 36 -8 52
2 11 7 47 3 63 -8 5 -3 12 -2 15 3 6 10 177 9 194 -1 6 -5 12 -4 12 0 0 13 74
11 82 -1 5 -8 8 -8 8 -1 0 12 39 14 57 2 6 -4 14 -3 18 2 3 6 12 8 19 5 7 -3
16 1 19 9 4 11 23 14 69 14 36 0 70 3 76 7 7 4 12 2 12 -3 0 -13 22 -10 32 4
5 7 8 7 8 0 0 -11 50 -12 68 -1 7 4 12 2 12 -6 0 -9 3 -9 10 2 9 13 10 13 10
0 0 -12 2 -13 9 -1 7 11 9 11 13 0 3 -10 9 -8 22 7 15 17 28 19 111 18 65 -1
98 -5 107 -15 19 -21 22 -67 4 -84 -8 -9 -13 -22 -10 -29 3 -7 -2 -16 -11 -20
-9 -3 -13 -10 -10 -16 3 -5 2 -10 -3 -10 -16 0 -51 -40 -46 -54 3 -7 -2 -16
-10 -19 -8 -3 -14 -14 -12 -24 2 -15 -62 -93 -71 -85 -11 8 -24 -1 -19 -13 3
-9 -1 -18 -9 -21 -8 -4 -15 -17 -15 -30 0 -14 -7 -27 -15 -30 -8 -3 -17 -14
-20 -25 -4 -11 -10 -17 -15 -14 -5 3 -11 -4 -15 -15 -3 -11 -15 -25 -26 -31
-11 -5 -17 -14 -14 -20 4 -5 1 -9 -4 -9 -6 0 -11 -7 -11 -15 0 -22 -54 -72
-74 -69 -9 1 -16 -4 -16 -12 0 -8 -7 -17 -15 -20 -8 -4 -15 -13 -15 -21 0 -8
-4 -12 -9 -8 -13 7 -29 -24 -26 -48 2 -9 0 -16 -3 -14 -9 4 -52 -40 -45 -47 3
-2 -6 -3 -20 -2 -20 2 -25 -1 -22 -15 2 -11 -1 -19 -6 -19 -6 0 -7 -4 -4 -10
3 -6 1 -10 -5 -10 -6 0 -8 -4 -5 -10 3 -5 2 -10 -4 -10 -10 0 -91 -77 -91 -87
0 -11 -35 -38 -49 -38 -9 -1 -15 -7 -13 -14 1 -7 -1 -10 -6 -7 -12 7 -45 -34
-48 -59 -1 -11 -3 -22 -3 -24 -1 -2 -9 3 -18 10 -9 8 -14 9 -10 2 4 -7 -1 -14
-13 -18 -11 -3 -19 -10 -17 -14 1 -5 -16 -26 -39 -48 -22 -22 -47 -48 -55 -59
-20 -27 -65 -63 -54 -44 4 8 -5 2 -21 -15 -16 -16 -28 -33 -26 -38 1 -4 -7 -3
-18 3 -15 8 -20 8 -20 -2 0 -6 -18 -29 -41 -50 -22 -21 -38 -38 -35 -38 3 0
-3 -9 -14 -20 -23 -23 -34 -26 -25 -7 4 6 -17 -14 -47 -46 -30 -31 -60 -57
-65 -57 -16 0 -62 -47 -55 -56 4 -5 0 -3 -8 3 -13 10 -19 6 -35 -18 -12 -18
-29 -29 -42 -29 -14 0 -23 -6 -23 -16 0 -8 -4 -13 -9 -9 -5 3 -12 -3 -16 -14
-3 -12 -12 -17 -23 -14 -12 3 -23 -5 -31 -21 -8 -14 -18 -23 -23 -20 -4 3 -8
-2 -8 -10 0 -8 -10 -18 -22 -22 -13 -3 -32 -14 -42 -23 -11 -9 -16 -10 -12 -4
5 9 2 11 -9 7 -9 -4 -14 -9 -11 -11 3 -3 -5 -15 -17 -28 -15 -15 -26 -19 -34
-13 -7 6 -13 3 -17 -9 -3 -10 -21 -27 -38 -38 -18 -10 -40 -27 -49 -37 -9 -10
-23 -18 -32 -18 -8 0 -18 -7 -21 -16 -3 -8 -11 -12 -17 -8 -7 4 -18 -1 -25
-11 -8 -10 -20 -15 -29 -11 -9 3 -14 2 -11 -3 3 -4 -7 -14 -22 -22 -15 -8 -29
-17 -32 -20 -3 -4 -14 -9 -25 -11 -11 -1 -23 -7 -27 -13 -4 -5 -15 -10 -25
-10 -10 -1 -17 -7 -15 -14 2 -9 -4 -12 -18 -8 -11 3 -18 2 -15 -3 5 -8 -17
-20 -45 -26 -8 -2 -16 -8 -18 -13 -2 -6 -12 -11 -23 -11 -11 0 -19 -7 -19 -17
0 -9 -3 -14 -6 -10 -4 3 -13 -1 -21 -9 -9 -8 -22 -13 -29 -10 -8 3 -14 1 -14
-4 0 -5 -7 -7 -15 -3 -10 3 -15 0 -13 -8 2 -8 -4 -14 -12 -14 -8 0 -18 -5 -23
-12 -4 -6 -19 -10 -33 -8 -15 1 -28 -3 -31 -11 -3 -8 -9 -11 -14 -8 -5 3 -9 0
-9 -6 0 -6 -5 -8 -10 -5 -6 3 -13 -1 -16 -9 -4 -9 -15 -14 -27 -12 -12 2 -33
-4 -47 -13 -28 -18 -62 -21 -72 -7 -4 6 -11 0 -17 -14 -5 -14 -10 -21 -10 -16
-1 5 -8 3 -16 -4 -11 -9 -15 -10 -15 0 0 7 -11 3 -26 -9 -15 -11 -30 -18 -35
-15 -5 3 -9 0 -9 -6 0 -6 -4 -8 -10 -5 -5 3 -10 1 -10 -5 0 -6 -8 -10 -17 -8
-10 1 -24 -1 -32 -6 -10 -6 -12 -5 -7 2 5 8 2 10 -8 6 -9 -3 -16 -11 -16 -18
0 -15 -65 -13 -66 2 -1 7 -2 15 -3 18 0 3 -12 -8 -26 -24 -15 -18 -33 -29 -47
-28 -13 1 -28 -5 -34 -13 -8 -10 -34 -14 -97 -14 -62 1 -87 -3 -91 -12 -3 -9
-19 -13 -45 -11 -23 2 -41 -1 -41 -6 0 -5 -8 -4 -18 1 -13 7 -23 6 -30 -1 -9
-9 -12 -9 -12 0 0 14 -21 12 -32 -3 -5 -7 -8 -7 -8 0 0 7 -31 10 -80 9 -43 0
-77 2 -75 6 7 12 -22 20 -42 13 -9 -4 -14 -2 -10 3 3 6 -7 9 -26 6 -55 -6 -69
-4 -90 15 -14 12 -18 13 -12 3 7 -12 6 -13 -7 -3 -8 7 -18 10 -22 5 -4 -4 -12
1 -17 11 -7 11 -18 16 -34 13 -16 -3 -28 1 -35 12 -5 9 -10 13 -10 8 0 -5 -8
-2 -17 5 -14 12 -16 12 -8 0 5 -8 -6 -5 -24 8 -17 13 -39 20 -47 17 -9 -4 -26
5 -42 23 -15 16 -35 27 -44 26 -10 -2 -16 2 -15 8 1 6 -7 13 -18 15 -20 3 -85
69 -85 85 0 4 -3 6 -8 4 -11 -5 -47 37 -50 60 -2 12 -25 44 -52 73 -48 49 -62
69 -39 55 6 -4 5 2 -3 14 -7 12 -17 21 -21 21 -5 0 -6 7 -3 15 3 9 -1 18 -9
21 -8 4 -12 10 -9 15 3 5 -2 9 -11 9 -9 0 -13 5 -10 10 3 5 1 10 -6 10 -10 0
-10 3 -2 11 13 13 6 40 -12 51 -7 4 -11 19 -9 34 1 15 -3 33 -11 40 -7 8 -12
31 -11 53 2 27 -2 42 -12 46 -8 3 -12 13 -9 25 3 10 0 21 -7 24 -8 3 -8 5 0 5
8 1 9 12 4 36 -5 20 -4 35 2 37 12 4 -11 58 -25 58 -5 0 -3 8 4 17 12 15 12
16 -1 8 -8 -4 -5 2 7 13 18 18 20 27 13 52 -5 16 -5 30 0 30 9 0 6 57 -3 67
-4 3 1 12 11 19 12 8 17 24 16 51 -1 21 5 46 13 55 8 9 12 21 9 26 -3 6 1 12
9 16 8 3 15 14 15 26 0 22 29 62 41 54 6 -3 16 15 24 46 8 28 19 40 25 29 6
-8 11 -5 19 10 7 11 19 21 27 21 8 0 13 3 11 8 -3 4 4 16 14 26 17 17 19 18
19 3 0 -9 6 -17 14 -17 9 0 13 7 11 20 -2 11 1 20 6 20 5 0 14 12 19 26 8 21
13 24 24 15 10 -9 15 -8 19 2 5 14 86 23 88 10 0 -4 2 -16 4 -26 2 -9 0 -15
-5 -12 -11 7 -21 -22 -13 -42 5 -12 3 -14 -7 -8 -9 6 -11 4 -5 -5 12 -20 13
-80 1 -80 -7 0 -7 -3 -1 -8 15 -10 16 -74 1 -65 -6 3 -1 -4 12 -17 13 -12 21
-28 18 -35 -2 -7 2 -16 11 -19 9 -4 13 -9 10 -13 -9 -9 25 -63 40 -63 7 0 13
-3 13 -7 0 -14 52 -68 62 -65 6 1 19 -7 29 -19 13 -15 19 -17 19 -8 1 10 5 8
15 -5 12 -15 28 -20 77 -21 64 -1 112 11 102 26 -3 5 1 6 9 3 8 -3 20 2 27 11
7 8 20 15 29 15 19 0 61 58 61 84 0 9 5 14 10 11 6 -3 10 -3 10 2 0 4 18 27
40 51 42 44 47 56 29 67 -6 5 -4 11 6 19 12 8 17 27 18 59 0 26 6 48 12 51 9
3 12 32 11 93 -1 49 3 94 8 102 8 11 8 13 -1 7 -9 -5 -13 0 -13 13 0 12 -4 21
-10 21 -6 0 -8 17 -6 40 4 38 -12 68 -28 53 -4 -4 -4 0 0 10 3 9 1 24 -6 32
-6 8 -8 20 -4 26 5 8 3 9 -6 4 -10 -6 -12 -4 -7 9 4 10 3 15 -3 11 -6 -3 -10
1 -10 9 0 9 -7 16 -15 16 -9 0 -15 6 -14 13 3 26 -1 48 -9 43 -10 -6 -43 30
-35 38 4 3 -6 6 -20 6 -15 0 -27 4 -27 10 0 17 -63 71 -77 66 -7 -3 -15 0 -19
6 -5 7 -2 8 6 3 9 -5 11 -4 6 3 -4 7 -16 12 -27 12 -11 0 -22 7 -25 15 -4 8
-10 12 -15 10 -4 -3 -17 3 -27 13 -13 13 -24 17 -35 11 -11 -7 -22 -1 -39 19
-23 26 -56 43 -43 22 7 -11 -3 -13 -57 -11 -25 1 -38 -3 -38 -11 0 -8 -3 -9
-8 -3 -11 16 -46 19 -36 3 6 -10 4 -10 -7 -2 -22 17 -182 12 -204 -6 -10 -8
-28 -13 -40 -12 -14 2 -25 -3 -29 -14 -4 -11 -13 -14 -28 -11 -14 4 -27 -1
-40 -15 -10 -12 -18 -16 -18 -10 0 6 -7 9 -15 6 -8 -4 -13 -10 -10 -14 6 -10
-24 -22 -36 -14 -5 3 -9 -2 -9 -10 0 -14 -11 -20 -32 -17 -4 0 -20 -15 -36
-35 -16 -19 -39 -36 -51 -37 -11 -1 -21 -7 -21 -14 0 -7 -3 -13 -7 -13 -5 0
-17 -12 -27 -27 -11 -14 -14 -23 -7 -18 8 4 6 -4 -4 -19 -10 -14 -21 -26 -25
-26 -5 0 -12 -9 -15 -21 -4 -12 -12 -18 -21 -15 -11 4 -14 -127 -14 -869 0
-697 2 -875 12 -875 10 0 10 -2 0 -9 -11 -7 -11 -11 2 -24 19 -19 21 -48 3
-41 -8 3 -14 -2 -14 -10 0 -11 5 -13 18 -6 9 6 20 15 22 22 3 7 6 3 6 -10 1
-12 10 -30 21 -39 11 -10 20 -23 20 -30 0 -7 5 -13 11 -13 6 0 8 -7 5 -15 -3
-9 1 -18 11 -22 14 -6 14 -8 -3 -20 -18 -13 -18 -15 -2 -27 10 -7 14 -16 10
-21 -4 -4 8 0 27 10 18 9 31 12 27 7 -7 -12 68 -92 86 -92 15 0 48 -35 48 -51
0 -5 5 -7 10 -4 6 3 10 -1 10 -10 0 -9 5 -13 10 -10 6 3 10 -1 10 -9 0 -13 22
-22 33 -13 6 4 33 -27 40 -46 6 -15 10 -16 28 -6 13 7 19 7 15 1 -7 -11 30
-52 46 -52 5 0 6 -6 3 -12 -4 -7 0 -5 8 4 13 17 15 17 32 -2 10 -11 21 -18 25
-15 4 2 16 -4 27 -15 13 -11 24 -15 30 -9 6 6 18 2 33 -11 13 -11 29 -20 37
-20 7 0 13 -4 13 -8 0 -5 6 -9 14 -9 8 0 12 6 9 14 -4 9 0 11 11 7 9 -3 16
-10 16 -15 0 -5 9 -9 19 -9 10 0 21 -7 25 -15 3 -9 12 -12 22 -8 13 5 15 3 9
-7 -5 -9 -4 -11 4 -6 6 4 9 11 6 16 -10 17 15 21 31 6 9 -9 20 -14 25 -11 5 4
9 0 9 -7 0 -10 2 -11 8 0 9 13 42 6 42 -8 0 -5 8 -9 18 -9 9 0 26 -1 37 -4 11
-2 27 5 37 17 l18 21 6 -21 c4 -15 12 -20 31 -18 13 1 27 5 30 8 4 3 12 1 20
-5 7 -6 13 -7 13 -3 0 5 17 8 38 7 73 -6 204 -5 209 1 4 3 12 1 20 -5 7 -6 13
-7 13 -2 0 5 16 7 35 5 25 -3 35 -1 33 8 -2 7 3 15 11 18 10 3 11 0 5 -9 -6
-11 -5 -12 7 -3 19 14 59 15 59 1 0 -6 7 -1 16 11 15 21 42 32 29 12 -3 -5 1
-10 9 -10 9 0 16 5 16 10 0 6 24 10 53 10 28 0 60 7 70 14 9 7 29 11 43 8 21
-4 25 -2 19 9 -7 11 -6 12 6 2 17 -14 55 -10 52 5 -2 6 6 9 17 7 11 -2 20 1
20 6 0 6 7 6 19 0 14 -8 25 -6 42 7 13 10 34 17 47 16 19 -1 26 6 24 27 -1 3
12 3 28 1 18 -2 35 2 44 11 9 8 25 13 36 10 12 -3 22 1 26 11 3 9 12 16 19 16
8 0 20 6 27 13 20 20 28 20 47 -2 21 -24 31 -19 25 15 -4 20 0 24 21 24 14 0
25 5 25 11 0 6 7 8 16 5 8 -3 13 -2 10 2 -8 13 26 29 57 28 16 -1 27 4 27 11
0 13 12 17 38 14 7 -1 11 4 10 11 -2 8 8 14 25 16 15 2 27 9 27 15 0 8 14 12
35 11 19 -1 33 1 31 5 -3 4 -1 13 5 21 6 11 9 12 9 2 0 -9 9 -7 30 8 17 12 30
18 30 14 0 -4 6 1 14 11 8 11 19 16 30 12 10 -4 16 -1 16 8 0 14 12 19 33 16
4 0 7 4 7 10 0 5 5 7 10 4 6 -3 10 2 10 12 0 14 2 15 9 4 7 -11 11 -10 22 6 8
13 19 19 32 15 14 -3 18 -1 13 6 -4 7 -1 12 8 12 9 0 15 6 13 13 -1 7 7 12 20
11 12 0 20 3 17 7 -2 5 5 13 16 19 11 6 20 7 20 3 0 -4 7 1 15 11 8 11 15 16
16 10 0 -5 4 0 8 10 4 11 14 20 22 22 18 3 97 43 86 44 -5 0 -1 7 8 16 9 9 23
13 32 9 10 -3 14 -3 11 1 -10 9 20 37 31 29 6 -3 15 4 21 15 6 11 16 17 22 14
7 -5 9 -2 5 9 -4 11 -2 14 8 11 7 -3 27 8 43 25 16 17 32 28 35 25 3 -4 20 9
36 27 17 18 31 29 32 24 0 -6 4 0 10 13 5 13 13 20 19 17 11 -7 30 9 48 40 6
11 12 14 12 8 0 -7 5 -13 12 -13 6 0 9 2 6 6 -11 10 46 60 59 51 6 -4 14 -3
18 3 3 5 4 10 1 10 -2 0 9 14 26 31 19 19 37 28 47 24 8 -3 13 -3 9 0 -10 10
94 110 114 109 9 -1 15 2 13 7 -3 4 3 12 12 18 10 6 15 11 11 11 -4 0 10 17
32 39 21 21 37 41 34 43 -3 3 16 15 41 27 25 12 43 26 40 31 -3 6 1 10 9 10
15 0 21 12 17 33 -1 5 3 6 7 3 5 -3 21 8 34 25 14 16 32 29 39 27 8 -2 15 7
17 20 2 13 10 26 18 29 8 3 11 9 8 14 -3 5 2 9 11 9 9 0 13 5 10 10 -6 9 1 12
22 9 3 0 10 6 15 15 5 9 13 14 19 11 5 -4 9 -1 9 5 0 6 19 30 43 52 23 23 42
45 42 48 0 3 3 4 8 3 4 -2 7 1 7 6 0 4 25 34 55 66 30 32 55 62 55 65 0 4 11
13 25 20 13 7 22 17 19 22 -3 4 2 11 10 14 9 3 16 13 16 21 0 8 5 11 10 8 6
-3 10 -2 10 4 0 5 16 24 35 42 18 18 32 36 29 41 -3 4 0 8 6 8 11 0 43 31 75
74 11 14 22 23 27 20 4 -3 8 1 8 8 0 7 21 33 46 58 57 56 90 100 73 100 -6 0
6 16 27 36 22 20 38 40 37 45 -2 5 4 9 12 9 8 0 15 3 15 8 0 4 21 29 46 55 25
26 47 56 49 66 2 10 24 39 49 65 25 25 46 51 46 57 0 5 5 7 10 4 6 -3 10 1 10
10 0 9 4 14 9 11 5 -3 12 2 15 11 4 9 1 20 -6 25 -9 5 -7 8 7 9 11 1 23 1 28
0 7 -1 9 5 11 32 1 6 11 21 24 32 12 12 24 31 27 44 2 13 19 37 37 53 18 16
32 35 30 42 -1 7 24 40 56 74 32 33 56 65 54 71 -2 6 2 11 10 11 10 0 9 3 -2
10 -13 9 -13 10 0 11 8 1 18 1 22 0 4 0 4 7 1 16 -4 9 -2 14 3 11 5 -3 15 0
22 8 7 8 9 14 5 14 -4 0 5 11 21 25 16 14 38 25 48 25 11 0 16 5 13 10 -3 6
-1 11 4 11 6 1 17 2 24 3 6 1 15 -3 19 -9 5 -6 8 -6 8 2 0 6 9 9 20 6 11 -3
20 -10 20 -17 0 -6 9 -17 20 -24 16 -10 20 -23 20 -71 0 -36 5 -61 12 -63 14
-5 15 -161 0 -166 -6 -2 -11 -58 -11 -140 -1 -83 -6 -139 -12 -143 -6 -3 -11
-24 -11 -45 0 -22 -5 -42 -11 -46 -6 -4 -11 -26 -12 -50 0 -24 -4 -49 -9 -57
-7 -10 -5 -12 5 -6 8 5 6 -1 -4 -12 -10 -12 -18 -34 -17 -50 4 -60 0 -83 -15
-83 -13 0 -14 -4 -5 -20 6 -11 7 -20 3 -20 -5 0 -8 -12 -7 -27 1 -16 3 -28 4
-28 1 0 3 -10 4 -22 1 -12 0 -21 -3 -19 -3 2 -15 -6 -26 -17 -11 -11 -15 -17
-9 -14 7 4 15 0 18 -9 4 -10 2 -13 -6 -8 -7 5 -9 0 -6 -14 3 -12 0 -23 -7 -25
-7 -3 -12 -23 -12 -47 0 -23 -4 -45 -10 -48 -14 -10 -24 -42 -12 -42 6 0 7 -6
2 -12 -4 -7 -6 -20 -5 -29 2 -9 -4 -19 -12 -22 -12 -5 -13 -13 -6 -36 6 -20 5
-33 -2 -37 -7 -5 -8 -2 -3 6 5 9 4 11 -3 6 -9 -5 -8 -12 1 -27 10 -17 9 -22
-4 -32 -11 -8 -15 -27 -14 -62 0 -35 -5 -56 -17 -69 -10 -11 -15 -22 -11 -25
11 -8 12 -52 2 -45 -5 3 -9 -3 -9 -12 0 -10 -8 -26 -17 -36 -14 -15 -14 -19
-3 -16 9 2 14 -3 11 -12 -2 -8 -4 -20 -5 -26 -1 -7 -7 -18 -13 -26 -13 -15
-12 -35 1 -57 7 -10 6 -12 -4 -6 -10 6 -12 0 -7 -28 4 -24 1 -41 -7 -50 -7 -7
-13 -37 -14 -67 -1 -87 -1 -92 -13 -85 -7 5 -10 -11 -8 -48 2 -36 -2 -62 -11
-72 -9 -11 -14 -45 -15 -97 -1 -43 -6 -82 -11 -86 -16 -11 -13 -894 3 -888 6
3 14 0 17 -7 3 -9 5 -9 5 0 1 7 8 10 16 7 8 -4 17 1 21 9 3 9 14 14 25 12 10
-2 18 1 16 8 -1 7 8 12 20 11 12 0 20 3 17 8 -3 4 0 8 6 8 6 0 9 4 5 9 -3 5 2
17 11 25 8 9 12 16 8 16 -4 0 2 8 12 18 11 9 18 26 16 37 -2 11 -1 17 3 13 10
-9 67 61 59 73 -3 5 2 12 10 15 9 3 16 16 16 29 0 13 7 26 16 29 8 3 12 10 9
16 -3 5 1 10 9 10 10 0 14 10 14 30 -1 16 5 37 13 46 8 9 13 26 11 37 -2 12 1
17 7 13 10 -6 16 13 12 37 -1 4 5 10 13 13 8 3 12 12 9 20 -3 8 0 14 7 14 6 0
8 5 5 10 -3 6 -2 10 2 10 12 0 38 70 34 93 -3 23 18 49 33 40 6 -4 5 1 -3 10
-11 14 -11 18 3 23 11 4 15 17 13 50 -2 28 2 45 10 48 7 3 13 17 13 31 0 15 4
24 10 20 10 -6 12 5 13 53 0 12 5 22 11 22 7 0 11 12 11 28 -1 15 4 33 9 41 6
8 12 24 12 35 3 43 4 47 14 41 11 -7 13 4 10 48 -1 17 4 29 14 33 9 3 16 15
16 26 0 13 -4 17 -12 12 -10 -6 -10 -5 -1 8 7 8 10 18 6 21 -3 4 1 7 10 7 11
0 15 9 15 31 -1 20 6 37 17 45 14 10 15 14 4 14 -10 0 -11 2 -2 8 8 5 9 13 3
22 -5 9 -5 19 2 27 6 7 7 13 3 13 -5 0 0 9 9 19 14 16 15 23 6 41 -7 12 -8 20
-2 16 5 -3 13 1 16 10 3 8 2 12 -4 9 -6 -3 -10 -2 -10 3 0 6 7 12 15 16 8 3
15 15 15 26 0 12 7 28 15 37 12 12 13 18 4 29 -9 11 -9 14 0 14 9 0 9 5 1 20
-9 16 -8 20 6 20 11 0 15 6 11 20 -3 11 -1 18 4 14 5 -3 9 0 9 5 0 6 -6 11
-12 11 -8 0 -4 7 7 15 22 17 34 72 13 59 -13 -7 38 54 56 67 4 4 2 9 -5 12 -9
4 -10 6 -2 6 7 1 10 7 7 15 -3 8 0 17 5 21 6 3 8 11 5 17 -4 6 -3 9 2 6 16
-10 31 17 29 50 -2 17 0 30 4 28 3 -1 14 5 24 16 9 10 15 18 13 18 -3 0 9 13
25 29 16 16 29 39 29 50 0 14 5 19 19 16 13 -2 27 7 42 30 13 18 27 31 31 29
4 -3 8 0 8 5 0 6 7 11 15 11 9 0 18 7 21 15 5 12 9 13 21 4 11 -10 13 -9 11 2
-2 8 3 13 10 12 6 -2 12 1 12 6 0 5 11 12 25 15 14 4 23 11 20 16 -3 6 0 10 9
10 8 0 17 -6 19 -12 4 -10 6 -10 6 0 1 7 6 10 11 7 6 -3 10 1 10 10 0 9 5 13
10 10 6 -3 10 -1 10 5 0 8 6 8 20 0 15 -8 21 -7 28 7 11 21 5 46 -9 37 -5 -3
-9 0 -9 7 0 7 -3 9 -6 6 -4 -4 -17 5 -30 20 -13 15 -26 24 -30 21 -3 -4 -15 2
-27 12 -11 11 -24 17 -29 14 -4 -3 -8 -1 -8 3 0 5 -9 14 -21 21 -17 11 -20 11
-14 0 4 -7 -3 -2 -15 12 -12 14 -19 20 -16 13 5 -8 0 -8 -18 0 -13 7 -23 14
-21 17 7 11 -50 57 -67 54 -10 -1 -17 1 -17 4 3 17 -2 35 -7 30 -10 -10 -44
31 -38 45 3 8 -8 24 -25 38 -17 13 -31 30 -31 37 0 7 -4 11 -8 8 -5 -3 -8 15
-7 40 2 29 -2 47 -10 50 -15 6 -15 130 -1 153 6 9 5 12 -1 8 -15 -10 -12 125
3 140 8 8 11 40 9 90 -1 43 2 83 7 90 5 6 10 22 12 35 1 13 6 30 11 37 6 10 4
12 -5 6 -9 -5 -11 -4 -6 3 4 7 13 12 20 12 14 0 15 28 1 49 -5 10 -4 12 3 7 7
-4 12 -1 12 9 0 9 4 14 9 10 6 -3 8 3 6 14 -2 11 3 25 10 31 7 6 12 20 10 31
-2 11 0 17 6 14 5 -4 9 -1 9 5 0 6 4 8 10 5 7 -4 7 2 0 19 -5 14 -6 25 -2 25
22 -4 29 4 27 31 -1 17 0 28 3 26 11 -11 44 34 38 51 -4 9 -4 14 0 11 13 -14
50 45 53 86 1 5 4 7 7 4 6 -7 44 27 44 40 0 4 23 29 50 56 28 27 50 55 50 62
0 7 6 11 14 8 8 -3 17 3 20 14 6 18 17 27 39 31 12 2 52 46 49 54 -1 5 6 6 17
2 12 -3 21 0 25 10 3 9 10 14 15 11 5 -4 25 10 45 29 20 19 36 31 36 26 0 -14
41 0 47 15 3 8 9 11 14 8 13 -7 40 16 33 27 -3 5 6 5 20 -1 20 -7 24 -6 19 5
-3 8 -1 15 3 16 5 0 17 2 27 4 9 2 17 -1 17 -6 0 -6 10 -1 22 11 12 11 27 20
34 20 6 0 14 6 17 14 4 9 14 12 26 9 12 -3 28 3 42 16 15 14 26 17 34 11 7 -6
16 -5 25 3 10 9 11 9 6 0 -10 -18 0 -16 19 4 19 19 62 26 70 13 3 -5 16 -4 30
2 13 6 22 14 20 18 -3 4 20 7 50 6 45 -2 56 2 61 16 3 10 10 18 15 18 6 0 8
-4 4 -9 -3 -6 7 -6 27 0 18 5 34 9 36 9 2 0 1 -4 -3 -9 -3 -6 6 -6 25 -1 21 6
30 5 30 -3 1 -7 9 -2 19 10 11 13 30 22 47 22 52 2 63 4 67 16 5 12 46 13 64
2 7 -4 14 -3 18 3 4 6 11 7 17 4 7 -4 8 -2 4 4 -4 7 -3 12 3 12 16 0 25 42 10
51 -8 4 -14 14 -15 21 -3 34 -5 39 -12 34 -5 -3 -9 1 -9 9 0 8 4 15 9 15 12 0
10 28 -4 36 -7 5 -8 3 -3 -6 6 -10 4 -12 -9 -7 -10 4 -19 7 -20 7 -1 0 -1 14
0 32 1 17 -4 37 -11 45 -8 7 -12 22 -10 34 2 11 -2 22 -9 25 -7 3 -12 16 -10
30 1 15 -3 24 -12 24 -8 0 -14 7 -14 15 0 8 7 15 16 15 8 0 12 5 9 10 -4 6
-12 7 -18 3 -7 -4 -5 2 3 12 14 17 14 18 -6 7 -19 -10 -23 -9 -27 8 -3 11 2
27 11 36 12 13 13 17 2 24 -7 4 -19 6 -27 3 -9 -4 -12 4 -10 28 2 24 -3 39
-18 51 -16 14 -17 19 -6 27 11 7 9 10 -8 16 -12 3 -18 11 -15 17 5 7 -2 9 -20
6 -14 -3 -26 -1 -26 4 0 5 -5 6 -12 2 -6 -4 -31 -7 -54 -5 -30 1 -43 -3 -48
-14 -4 -11 -14 -14 -36 -10 -18 3 -30 1 -30 -5 0 -7 -5 -8 -12 -3 -23 14 -40
12 -61 -8 -16 -14 -23 -16 -29 -7 -6 10 -10 10 -17 -1 -6 -9 -10 -10 -16 -2
-5 9 -10 9 -20 1 -10 -8 -15 -8 -20 0 -5 8 -11 8 -21 -1 -11 -9 -14 -8 -14 2
0 12 -2 12 -9 0 -6 -9 -11 -10 -15 -2 -4 6 -13 8 -19 4 -19 -11 -47 -11 -47 1
0 6 -8 1 -18 -11 -13 -18 -25 -22 -54 -19 -20 2 -45 11 -54 20 -12 12 -20 14
-29 6 -7 -6 -16 -7 -19 -2 -6 10 -36 9 -54 -2 -7 -4 -12 -2 -12 5 0 8 -4 8
-15 -1 -11 -9 -15 -9 -15 -1 0 8 -5 9 -19 1 -14 -7 -21 -6 -24 3 -4 9 -6 9 -6
-1 -1 -9 -7 -7 -21 6 -15 14 -34 18 -79 17 -38 -1 -59 2 -58 9 1 5 -2 10 -8
11 -5 0 -16 4 -22 8 -8 5 -13 3 -13 -4 0 -7 -8 -5 -20 6 -22 20 -56 24 -80 10
-8 -4 -12 -5 -8 -1 8 10 -14 36 -24 29 -5 -2 -8 1 -8 8 0 9 -3 9 -14 0 -11
-10 -17 -8 -29 9 -11 16 -16 18 -20 8 -4 -11 -6 -11 -6 0 -1 7 -6 10 -12 7 -6
-4 -13 2 -16 13 -4 17 -9 19 -27 12 -18 -6 -27 -4 -41 12 -14 17 -19 18 -26 7
-7 -11 -9 -11 -9 3 0 16 -28 32 -47 26 -14 -5 -65 40 -59 51 4 6 -4 7 -23 1
-24 -7 -31 -5 -36 8 -3 13 -15 17 -41 16 -19 -1 -33 1 -30 4 4 3 -8 12 -25 19
-17 7 -28 17 -25 21 3 5 -7 8 -22 7 -34 -2 -53 5 -46 16 3 6 -6 8 -22 5 -20
-4 -34 0 -46 14 -21 22 -38 26 -38 8 0 -6 -10 -2 -22 9 -13 11 -34 19 -47 18
-16 -1 -25 4 -29 17 -4 15 -7 17 -13 6 -7 -10 -9 -11 -9 0 0 7 -4 11 -9 8 -5
-3 -11 0 -14 8 -3 7 -17 14 -32 14 -14 0 -35 8 -45 17 -15 14 -20 15 -20 4 0
-12 -2 -12 -9 0 -7 11 -9 11 -14 0 -4 -10 -8 -7 -13 9 -4 13 -12 21 -19 18 -7
-2 -22 4 -33 14 -15 14 -22 16 -32 7 -10 -9 -11 -9 -5 3 8 13 7 13 -8 1 -17
-13 -22 -7 -18 21 0 4 -15 6 -34 4 -24 -1 -35 2 -35 11 0 7 -11 13 -26 13 -14
0 -23 4 -19 10 6 10 -15 14 -44 11 -7 -2 -10 2 -6 8 3 7 0 8 -9 5 -9 -3 -16
-1 -16 5 0 6 -6 11 -14 11 -8 0 -21 7 -29 15 -13 13 -16 13 -21 0 -3 -8 -12
-12 -21 -9 -8 3 -13 9 -11 13 3 4 -5 8 -17 8 -11 1 -24 9 -29 17 -7 12 -14 13
-33 6 -19 -7 -25 -6 -25 4 0 18 -17 24 -57 21 -18 -1 -33 2 -33 7 0 14 -44 26
-61 17 -10 -5 -20 -2 -28 10 -9 11 -24 17 -47 16 -20 -1 -44 5 -57 15 -12 9
-28 15 -35 13 -7 -3 -10 1 -7 9 4 11 -6 14 -51 12 -39 -1 -57 3 -61 12 -3 8
-9 11 -14 8 -5 -3 -9 0 -9 6 0 8 -6 8 -20 0 -11 -6 -20 -7 -20 -1 0 5 -8 8
-17 7 -10 0 -17 4 -16 11 2 7 -4 10 -12 7 -8 -4 -12 -10 -9 -15 3 -5 -2 -9
-10 -9 -9 0 -16 6 -16 14 0 8 -11 13 -27 12 -16 -1 -34 5 -41 12 -9 8 -46 12
-107 12 -71 0 -94 3 -98 14 -6 15 -23 16 -46 2 -10 -6 -12 -5 -7 2 4 7 1 12
-9 12 -10 0 -13 -5 -9 -12 6 -10 5 -10 -8 -1 -8 7 -18 10 -21 6 -4 -3 -14 0
-24 8 -11 9 -14 10 -9 2 4 -8 2 -13 -6 -13 -8 0 -20 6 -27 13 -11 10 -12 9 -6
-1 6 -11 0 -13 -28 -9 -19 2 -40 0 -45 -5 -6 -6 -12 -5 -17 3 -6 8 -4 10 5 4
9 -6 11 -4 5 4 -5 9 -10 10 -18 2 -14 -14 -40 -15 -32 -1 3 6 4 10 1 10 -3 0
-8 -5 -11 -10z m720 -730 c-8 -12 11 -21 45 -22 27 -1 35 -9 31 -31 -1 -5 4
-5 10 -2 21 13 79 15 79 2 0 -8 3 -8 9 1 12 20 19 19 36 -6 9 -12 21 -19 27
-16 6 4 17 -1 24 -11 12 -16 14 -17 20 -2 3 10 11 17 16 17 6 0 8 -6 5 -13 -3
-9 6 -13 29 -14 19 0 41 -7 50 -14 9 -7 31 -13 50 -12 24 0 34 -4 34 -14 0 -9
6 -13 15 -10 8 4 17 2 20 -4 4 -5 12 -6 18 -2 22 14 36 11 42 -8 4 -11 11 -16
18 -12 22 14 60 9 64 -8 3 -12 14 -16 34 -15 17 1 33 -3 37 -9 10 -16 52 -26
52 -12 0 6 7 1 16 -11 12 -18 23 -22 46 -18 21 3 28 1 25 -8 -3 -7 7 -13 27
-14 17 -1 37 -10 44 -20 7 -9 15 -16 17 -14 13 6 35 1 30 -8 -4 -6 9 -10 31
-10 31 0 36 -3 31 -20 -5 -18 2 -24 20 -17 5 1 7 5 6 8 -1 3 5 6 13 6 8 0 14
-6 14 -14 0 -14 1 -14 42 -17 14 0 30 -5 35 -10 5 -5 2 -6 -6 -1 -10 5 -12 4
-7 -4 4 -6 13 -11 19 -10 25 3 38 -1 32 -11 -4 -6 5 -10 19 -10 15 0 26 -6 26
-14 0 -9 10 -13 30 -11 17 1 30 -1 30 -5 0 -4 13 -13 30 -20 16 -7 28 -16 25
-20 -3 -4 9 -6 25 -5 22 2 35 -4 45 -18 8 -12 15 -16 15 -10 0 7 7 10 15 7 8
-4 12 -10 9 -15 -3 -5 0 -10 5 -10 6 -1 16 -3 21 -4 6 -1 15 -3 21 -4 5 0 7
-5 4 -11 -4 -6 5 -10 19 -10 16 0 26 -6 26 -14 0 -9 7 -13 20 -11 13 2 20 -2
20 -11 0 -8 6 -14 13 -14 8 0 19 -11 25 -25 11 -24 42 -26 42 -2 0 6 8 2 18
-9 22 -24 25 -81 5 -88 -8 -3 -11 -11 -7 -18 5 -8 2 -9 -10 -5 -10 4 -15 3
-11 -3 7 -11 -29 -32 -39 -23 -3 3 -6 -2 -6 -12 0 -10 -3 -15 -7 -12 -3 4 -13
1 -21 -6 -13 -9 -14 -9 -8 1 4 6 2 12 -3 12 -6 0 -11 -6 -11 -13 0 -6 -13 -18
-30 -25 -16 -7 -32 -22 -35 -33 -5 -14 -10 -17 -19 -10 -9 7 -16 5 -26 -9 -8
-11 -21 -20 -29 -20 -7 0 -24 -12 -37 -26 -13 -14 -29 -22 -34 -19 -6 3 -10 2
-10 -3 0 -6 -13 -15 -30 -21 -16 -5 -30 -13 -30 -16 0 -3 5 -3 12 1 7 4 8 3 4
-4 -8 -14 -41 0 -49 20 -3 7 -6 -2 -6 -19 -1 -26 -5 -33 -20 -33 -11 0 -21 -5
-23 -12 -2 -6 -13 -12 -24 -12 -11 -1 -26 -6 -33 -11 -10 -6 -12 -4 -7 6 4 8
1 6 -7 -3 -8 -10 -22 -18 -31 -18 -10 0 -14 -4 -11 -10 3 -5 -3 -10 -15 -10
-14 0 -19 -4 -14 -12 5 -8 1 -8 -10 1 -11 10 -20 11 -24 5 -10 -15 -44 -27
-66 -25 -11 2 -16 -2 -12 -8 4 -7 -1 -11 -13 -11 -12 0 -21 -5 -21 -12 0 -6
-3 -8 -7 -5 -3 4 -12 -1 -19 -11 -10 -12 -13 -13 -14 -3 0 11 -3 11 -15 1 -8
-7 -15 -9 -15 -4 0 5 -4 3 -8 -4 -5 -7 -22 -15 -37 -18 -16 -3 -35 -10 -42
-15 -7 -6 -17 -8 -23 -4 -5 3 -10 2 -10 -4 0 -6 -7 -8 -15 -5 -9 4 -15 0 -15
-8 0 -10 -9 -14 -27 -13 -16 1 -35 -6 -45 -17 -9 -11 -19 -15 -22 -9 -9 14
-45 1 -40 -14 4 -10 -8 -12 -50 -10 -33 2 -56 -1 -56 -6 0 -6 -4 -7 -10 -4 -5
3 -10 0 -10 -7 0 -14 -37 -17 -56 -5 -6 3 -17 -2 -26 -12 -9 -11 -27 -17 -49
-16 -22 1 -40 -5 -50 -16 -12 -14 -19 -15 -27 -7 -9 9 -12 9 -12 -1 0 -10 -3
-11 -13 -3 -8 7 -18 7 -27 2 -8 -5 -21 -5 -30 0 -10 6 -24 2 -40 -11 -28 -21
-45 -25 -34 -7 5 7 3 8 -7 2 -20 -12 -79 -12 -79 0 0 8 -3 8 -8 1 -9 -14 -74
-16 -65 -2 4 6 1 7 -8 1 -22 -13 -90 -14 -82 0 3 7 1 6 -7 -1 -11 -10 -17 -10
-29 0 -10 8 -13 8 -8 0 5 -8 -4 -10 -30 -8 -21 1 -41 -2 -45 -8 -3 -5 -22 -11
-42 -12 -20 -1 -39 -5 -42 -8 -3 -3 -12 -3 -18 -1 -22 8 -97 10 -102 2 -3 -4
-11 -5 -18 -2 -22 9 -97 10 -102 2 -3 -5 -14 -3 -25 2 -14 8 -19 7 -19 -2 0
-8 -3 -9 -8 -3 -4 6 -20 10 -37 10 -16 0 -33 -4 -37 -10 -5 -7 -8 -7 -8 0 0
11 -91 12 -109 1 -6 -4 -11 -2 -11 5 0 8 -3 9 -13 0 -8 -6 -17 -8 -20 -4 -9 9
-68 10 -73 1 -3 -4 -11 -5 -18 -2 -21 8 -97 10 -102 3 -2 -4 -19 -3 -38 1 -22
5 -38 4 -45 -3 -8 -8 -11 -7 -11 2 0 10 -3 11 -13 3 -17 -14 -61 13 -51 31 5
8 3 8 -7 0 -16 -16 -33 -17 -23 -1 5 7 3 8 -7 2 -21 -13 -82 -13 -98 0 -11 8
-13 8 -8 0 5 -8 -5 -11 -29 -10 -19 1 -38 7 -43 14 -8 13 -111 22 -111 10 0
-4 -7 -5 -15 -2 -8 4 -15 13 -15 21 0 13 -2 13 -17 2 -10 -8 -14 -9 -10 -2 5
8 -2 11 -20 11 -53 -1 -60 1 -43 12 12 8 10 10 -8 10 -13 0 -20 -4 -17 -10 3
-5 0 -10 -8 -10 -8 0 -18 8 -21 17 -6 14 -9 15 -15 4 -6 -10 -10 -10 -16 -2
-5 8 -11 9 -19 2 -9 -8 -18 -5 -32 8 -11 10 -27 17 -37 15 -9 -1 -17 3 -17 9
0 7 -5 6 -10 -3 -9 -13 -12 -13 -24 2 -7 10 -16 15 -19 11 -4 -3 -7 -1 -7 7 0
10 -3 10 -15 0 -12 -10 -15 -10 -15 1 0 10 -3 10 -12 1 -8 -8 -15 -7 -27 7 -9
10 -25 19 -36 19 -39 -1 -47 2 -42 15 3 8 -3 13 -14 13 -11 0 -19 -3 -19 -7 0
-12 -44 3 -57 18 -6 8 -16 12 -22 9 -12 -8 -61 14 -61 27 0 6 -5 6 -12 -1 -15
-11 -51 -1 -46 13 2 6 -10 10 -25 10 -16 1 -31 6 -35 12 -4 6 -23 13 -42 15
-23 2 -34 8 -32 16 2 11 -7 13 -37 8 -29 -4 -43 -1 -48 9 -4 7 -11 14 -15 15
-34 7 -48 14 -48 20 0 10 -20 8 -38 -4 -7 -4 -12 -4 -11 1 5 28 -3 35 -32 31
-20 -3 -33 0 -36 9 -3 7 -13 13 -23 13 -10 0 -28 13 -41 29 -13 16 -27 27 -31
25 -5 -3 -6 -10 -3 -15 4 -5 0 -9 -8 -9 -8 0 -18 7 -21 16 -3 8 -10 12 -16 9
-6 -3 -13 1 -16 9 -3 9 -10 14 -14 11 -4 -3 -11 5 -14 18 l-7 22 -11 -22 c-10
-20 -12 -21 -23 -7 -6 9 -23 17 -38 17 -15 0 -32 6 -38 13 -6 8 -15 11 -20 8
-5 -3 -9 -1 -9 4 0 12 -40 28 -67 26 -12 -1 -21 4 -20 10 1 6 -8 11 -19 11
-12 1 -28 5 -35 11 -22 17 -58 23 -63 10 -2 -6 -5 -4 -5 5 -1 16 -44 34 -59
25 -8 -5 -33 20 -26 26 2 3 -3 5 -11 5 -8 0 -15 -4 -15 -9 0 -9 -41 12 -52 27
-5 6 -8 6 -8 0 0 -5 -13 5 -29 22 -25 28 -31 30 -41 18 -25 -30 -57 -9 -39 26
6 11 18 15 40 13 18 -2 40 2 48 9 22 18 58 19 65 1 9 -25 29 -16 24 11 -4 19
-1 25 13 25 10 0 24 6 32 14 9 10 29 13 61 11 33 -3 48 -1 52 9 7 18 44 28 44
13 0 -7 7 -4 14 6 8 10 30 19 57 21 24 2 48 11 54 19 9 13 14 14 23 5 9 -9 12
-9 12 0 0 8 7 9 25 2 16 -6 25 -6 25 0 0 6 7 10 15 10 8 0 15 4 15 9 0 6 9 8
20 6 11 -2 27 3 35 12 9 8 22 12 30 9 8 -3 15 -1 15 5 0 6 7 6 19 -1 16 -8 22
-6 29 7 9 15 21 18 101 22 10 1 11 4 2 15 -9 11 -6 12 14 8 14 -2 25 -11 25
-21 0 -14 2 -14 10 -1 5 8 10 11 10 6 0 -5 9 3 20 16 14 19 28 25 49 23 19 -2
28 2 25 9 -3 7 8 13 28 14 18 2 39 9 48 16 8 7 23 12 33 11 10 -2 21 3 24 11
3 8 19 14 39 14 21 0 34 5 34 13 0 9 12 12 37 10 23 -1 44 3 55 14 9 8 26 13
37 10 12 -3 22 1 25 10 3 8 10 11 16 8 5 -3 10 -1 10 4 0 7 14 9 38 5 20 -3
34 -3 30 2 -13 12 35 32 55 22 13 -7 17 -5 17 9 0 15 9 18 53 18 39 -1 55 4
65 18 11 14 17 15 28 6 11 -9 14 -8 14 2 0 12 2 12 9 0 7 -11 12 -10 27 5 11
11 30 19 44 19 14 -1 32 7 42 18 11 12 18 15 23 6 6 -8 10 -7 16 2 5 8 9 9 9
4 0 -17 51 -10 61 7 6 10 17 14 30 11 14 -4 26 0 34 10 8 11 24 16 46 14 19
-1 35 2 36 8 3 15 37 24 50 13 8 -7 22 -3 43 12 18 13 39 20 51 17 12 -3 22 0
26 9 3 8 11 14 18 14 14 0 15 -17 2 -37 -4 -6 -3 -14 2 -17 11 -7 2 -46 -10
-46 -5 0 -9 -72 -9 -160 0 -88 3 -160 8 -160 4 0 13 -9 20 -21 8 -12 9 -18 3
-14 -17 10 -13 -42 5 -70 9 -14 12 -25 8 -25 -5 0 -3 -4 5 -9 8 -5 16 -19 18
-32 2 -12 11 -28 21 -35 10 -8 12 -13 4 -14 -10 0 -10 -4 0 -19 7 -11 16 -17
20 -15 4 3 8 0 8 -7 0 -6 17 -27 37 -45 20 -19 33 -34 29 -34 -4 0 -1 -7 8
-15 8 -8 19 -15 25 -15 6 0 11 -7 11 -16 0 -10 5 -14 15 -10 9 3 18 -1 21 -9
4 -8 17 -15 31 -15 13 0 21 -4 18 -10 -3 -5 1 -10 10 -10 9 0 13 -5 9 -11 -4
-7 1 -7 15 1 19 10 25 8 41 -10 18 -21 39 -23 52 -5 5 6 8 5 8 -4 0 -10 3 -11
13 -2 11 8 19 6 36 -8 19 -16 38 -19 129 -19 118 0 165 5 157 18 -3 5 -1 11 5
15 5 3 10 2 10 -3 0 -11 30 -9 49 3 10 6 12 4 6 -6 -8 -12 -6 -12 8 0 9 7 15
16 12 20 -6 11 39 8 46 -3 4 -5 10 1 14 13 4 14 12 20 21 17 8 -3 17 1 20 8 3
8 12 17 20 20 8 3 12 1 9 -4 -3 -6 1 -7 9 -4 9 3 16 9 16 13 0 3 11 18 24 33
14 14 22 29 18 34 -4 4 -2 4 4 1 12 -7 44 26 44 46 0 7 11 24 25 39 14 15 25
32 25 38 0 6 4 9 9 5 14 -8 21 9 11 25 -9 14 8 60 22 60 5 0 7 4 3 9 -3 5 1
15 8 23 8 7 12 19 9 26 -2 6 2 12 10 12 10 0 9 3 -2 10 -13 9 -13 11 0 20 8 5
10 10 5 10 -17 0 -15 38 1 44 12 5 15 20 13 64 -1 32 1 64 5 70 4 7 4 12 -1
12 -4 0 -7 35 -6 77 1 42 -1 80 -6 83 -20 12 -16 70 5 70 9 0 12 5 8 12 -4 7
-3 8 5 4 6 -4 9 -11 6 -16z"/>
</g>
</svg>
